#!OML:ASF I:\Actors\actors\Patient Classification 1\Patient 1\Session 1\Subject1.ASF
:FULLY-SPECIFIED
:DEGREES
733
root 0.865381 17.5791 7.9919 5.65165 -4.91146 -10.3712
lowerback 0.196953 -0.515815 4.87977
upperback -3.64985 -0.546232 1.00468
thorax -3.91709 -0.415169 -1.67494
lowerneck -22.4007 -3.9269 0.921176
upperneck 14.001 -7.66829 10.2028
head 8.45956 -2.48693 2.25121
rclavicle 1.63997e-015 -3.18055e-015
rhumerus -25.0125 65.4465 -125.931
rradius 129.148
rwrist 9.22117
rhand -23.6074 -56.3781
rfingers 7.12502
rthumb 2.85656 -446.339
lclavicle 1.63997e-015 -3.18055e-015
lhumerus -70.1341 -113.96 169.025
lradius 107.146
lwrist 68.2916
lhand 10.4022 -3.79223
lfingers 7.12502
lthumb 35.5077 22.6437
rfemur -10.0372 18.7221 27.2943
rtibia 15.4915
rfoot -14.0561 -13.7683
rtoes -3.08682
lfemur 0.140846 -24.3429 -6.18449
ltibia 2.2785
lfoot -12.2225 36.377
ltoes -3.43116
734
root 0.870125 17.5808 7.99338 5.70691 -5.06468 -10.2663
lowerback 0.0290191 -0.297958 4.81241
upperback -3.56444 -0.273911 0.876867
thorax -3.71471 -0.273909 -1.78099
lowerneck -22.4688 -4.02526 1.42026
upperneck 13.6887 -7.85593 9.87161
head 8.33877 -2.59558 2.03157
rclavicle 8.10048e-015 -2.62396e-014
rhumerus -23.0109 65.316 -123.856
rradius 129.136
rwrist 9.02844
rhand -22.9735 -57.0531
rfingers 7.12502
rthumb 3.46866 -447.005
lclavicle 8.10048e-015 -2.62396e-014
lhumerus -69.5164 -113.592 167.662
lradius 106.519
lwrist 69.1743
lhand 14.015 -3.45615
lfingers 7.12502
lthumb 38.9236 22.0857
rfemur -10.1166 18.828 27.1368
rtibia 15.5255
rfoot -14.0703 -13.7312
rtoes -2.83019
lfemur 0.212083 -24.4637 -6.37498
ltibia 2.1891
lfoot -12.4109 36.6005
ltoes -2.91256
735
root 0.874804 17.5808 7.99497 5.71015 -5.32668 -10.0908
lowerback 0.10635 -0.332442 4.95914
upperback -3.51484 -0.319378 0.697705
thorax -3.71305 -0.303466 -2.04638
lowerneck -22.8997 -3.88229 1.71572
upperneck 13.7615 -7.74331 9.68117
head 8.41113 -2.52893 1.93229
rclavicle 2.33075e-014 -1.66979e-014
rhumerus -21.5451 66.1779 -122.631
rradius 129.076
rwrist 8.54633
rhand -22.7481 -57.1461
rfingers 7.12502
rthumb 3.68638 -447.094
lclavicle 2.33075e-014 -1.66979e-014
lhumerus -69.8092 -113.254 166.409
lradius 105.669
lwrist 68.6089
lhand 17.6689 -3.15617
lfingers 7.12502
lthumb 42.3576 21.3129
rfemur -10.1334 18.9808 26.9181
rtibia 15.5516
rfoot -14.0938 -13.6259
rtoes -2.9302
lfemur 0.413072 -24.6295 -6.72696
ltibia 2.07692
lfoot -12.7344 36.9362
ltoes -2.15863
736
root 0.878518 17.5792 7.99401 5.70899 -5.61178 -9.9569
lowerback 0.326853 -0.438499 5.24248
upperback -3.52608 -0.4424 0.635775
thorax -3.86376 -0.378548 -2.26282
lowerneck -23.4137 -3.7558 1.39721
upperneck 13.958 -7.53659 9.78625
head 8.57223 -2.41181 2.04425
rclavicle 1.32689e-014 -1.90833e-014
rhumerus -20.5193 67.5641 -121.806
rradius 129.105
rwrist 8.26712
rhand -22.7879 -56.733
rfingers 7.12502
rthumb 3.64788 -446.682
lclavicle 1.32689e-014 -1.90833e-014
lhumerus -69.0689 -113.177 163.867
lradius 104.642
lwrist 65.7323
lhand 18.4578 -4.52378
lfingers 7.12502
lthumb 43.0958 19.6882
rfemur -10.1632 19.1468 26.7502
rtibia 15.5666
rfoot -14.0667 -13.5188
rtoes -3.22389
lfemur 0.597125 -24.7195 -7.00258
ltibia 1.97607
lfoot -12.9336 37.2345
ltoes -1.70274
737
root 0.88217 17.5776 7.99109 5.75147 -5.87329 -9.9141
lowerback 0.439802 -0.460606 5.42959
upperback -3.49316 -0.461642 0.620182
thorax -3.89818 -0.394656 -2.38221
lowerneck -23.7167 -3.64003 1.37885
upperneck 13.8293 -7.36101 9.74073
head 8.56915 -2.33196 2.05469
rclavicle 1.88845e-015 -1.11319e-014
rhumerus -19.5294 68.6289 -121.095
rradius 129.772
rwrist 7.15771
rhand -22.9134 -59.9622
rfingers 7.12502
rthumb 3.52671 -449.913
lclavicle 1.88845e-015 -1.11319e-014
lhumerus -67.4615 -113.612 160.67
lradius 103.485
lwrist 63.1296
lhand 18.8049 -6.29642
lfingers 7.12502
lthumb 43.4202 17.7994
rfemur -10.2313 19.2776 26.6759
rtibia 15.5569
rfoot -14.0196 -13.4023
rtoes -3.40606
lfemur 0.681348 -24.7006 -7.10481
ltibia 1.91055
lfoot -13.0918 37.4258
ltoes -1.41276
